# xmcd CD database file
#
# Track frame offsets:
#	150
#	13303
#	25700
#	42110
#
# Disc length: 703 seconds
#
# Revision: 0
# Processed by: cddbd v1.5.2PL0 Copyright (c) Steve Scherf et al.
# Submitted via: CDex 1.70beta2
#
DISCID=2602bd04
DTITLE=The Swingalettes - Demo 2
DYEAR=2009
DGENRE=Jazz
TTITLE0=Bei mir bist du scheen
TTITLE1=Sugar
TTITLE2=Well all right (tonight´s the night)
TTITLE3=Tico, Tico
EXTD=YEAR: 2009
EXTT0=
EXTT1=
EXTT2=
EXTT3=
PLAYORDER=
